<svg width="428" height="72" viewBox="0 0 428 72" fill="none" xmlns="http://www.w3.org/2000/svg">
<rect opacity="0.4" x="0.5" y="0.5" width="427" height="71" rx="9.5" stroke="#356EAD"/>
<path opacity="0.2" d="M47.103 35.8281L50.5796 29.625H51.689L47.5796 36.7188V41H46.6187V36.7188L42.5171 29.625H43.6577L47.103 35.8281ZM52.7352 36.6484C52.7352 35.8359 52.8915 35.1042 53.204 34.4531C53.5217 33.8021 53.967 33.2969 54.5399 32.9375C55.118 32.5729 55.7717 32.3906 56.5008 32.3906C57.6258 32.3906 58.5373 32.7865 59.2352 33.5781C59.9331 34.3646 60.2821 35.4089 60.2821 36.7109V36.9062C60.2821 37.724 60.1232 38.4609 59.8055 39.1172C59.493 39.7682 59.0503 40.2708 58.4774 40.625C57.9045 40.9792 57.2508 41.1562 56.5165 41.1562C55.3967 41.1562 54.4852 40.763 53.7821 39.9766C53.0842 39.1849 52.7352 38.138 52.7352 36.8359V36.6484ZM53.6727 36.9062C53.6727 37.9167 53.9331 38.7474 54.454 39.3984C54.98 40.0443 55.6675 40.3672 56.5165 40.3672C57.3602 40.3672 58.0425 40.0443 58.5633 39.3984C59.0894 38.7474 59.3524 37.8906 59.3524 36.8281V36.6484C59.3524 36.0026 59.2326 35.4115 58.993 34.875C58.7534 34.3385 58.4175 33.9245 57.9852 33.6328C57.5529 33.3359 57.0581 33.1875 56.5008 33.1875C55.6675 33.1875 54.9878 33.5156 54.4618 34.1719C53.9357 34.8229 53.6727 35.6771 53.6727 36.7344V36.9062ZM68.2971 39.9297C67.7346 40.7474 66.8362 41.1562 65.6018 41.1562C64.7007 41.1562 64.0158 40.8958 63.5471 40.375C63.0783 39.849 62.8388 39.0729 62.8283 38.0469V32.5469H63.758V37.9297C63.758 39.5391 64.4091 40.3438 65.7112 40.3438C67.0653 40.3438 67.9221 39.7839 68.2815 38.6641V32.5469H69.219V41H68.3127L68.2971 39.9297ZM76.2027 33.3438C76.0048 33.3073 75.7939 33.2891 75.5699 33.2891C74.9866 33.2891 74.4918 33.4531 74.0855 33.7812C73.6845 34.1042 73.398 34.5755 73.2262 35.1953V41H72.2965V32.5469H73.2105L73.2262 33.8906C73.7209 32.8906 74.5152 32.3906 75.609 32.3906C75.8694 32.3906 76.0751 32.4245 76.2262 32.4922L76.2027 33.3438ZM91.5452 41H90.5843L84.0452 31.2656V41H83.0765V29.625H84.0452L90.5921 39.3672V29.625H91.5452V41ZM100.193 41C100.099 40.7344 100.039 40.3411 100.013 39.8203C99.6852 40.2474 99.2659 40.5781 98.7555 40.8125C98.2503 41.0417 97.7139 41.1562 97.1462 41.1562C96.3337 41.1562 95.6748 40.9297 95.1696 40.4766C94.6696 40.0234 94.4196 39.4505 94.4196 38.7578C94.4196 37.9349 94.7607 37.2839 95.443 36.8047C96.1305 36.3255 97.0863 36.0859 98.3102 36.0859H100.006V35.125C100.006 34.5208 99.818 34.0469 99.443 33.7031C99.0732 33.3542 98.5316 33.1797 97.818 33.1797C97.167 33.1797 96.6279 33.3464 96.2008 33.6797C95.7738 34.013 95.5602 34.4141 95.5602 34.8828L94.6227 34.875C94.6227 34.2031 94.9352 33.6224 95.5602 33.1328C96.1852 32.638 96.9534 32.3906 97.8649 32.3906C98.8076 32.3906 99.5498 32.6276 100.091 33.1016C100.638 33.5703 100.92 34.2266 100.935 35.0703V39.0703C100.935 39.888 101.021 40.5 101.193 40.9062V41H100.193ZM97.2555 40.3281C97.8805 40.3281 98.4378 40.1771 98.9274 39.875C99.4222 39.5729 99.7816 39.1693 100.006 38.6641V36.8047H98.3337C97.4014 36.8151 96.6722 36.987 96.1462 37.3203C95.6201 37.6484 95.3571 38.1016 95.3571 38.6797C95.3571 39.1536 95.5316 39.5469 95.8805 39.8594C96.2347 40.1719 96.693 40.3281 97.2555 40.3281ZM104.927 32.5469L104.958 33.9219C105.271 33.4115 105.661 33.0286 106.13 32.7734C106.599 32.5182 107.119 32.3906 107.692 32.3906C109.026 32.3906 109.872 32.9375 110.231 34.0312C110.534 33.5052 110.937 33.1016 111.442 32.8203C111.948 32.5339 112.505 32.3906 113.114 32.3906C114.927 32.3906 115.851 33.3802 115.888 35.3594V41H114.95V35.4297C114.945 34.6745 114.781 34.1146 114.458 33.75C114.14 33.3854 113.619 33.2031 112.896 33.2031C112.224 33.2135 111.656 33.4323 111.192 33.8594C110.729 34.2812 110.471 34.7969 110.419 35.4062V41H109.481V35.3594C109.476 34.6354 109.304 34.0964 108.966 33.7422C108.633 33.3828 108.117 33.2031 107.419 33.2031C106.83 33.2031 106.325 33.3724 105.903 33.7109C105.481 34.0443 105.169 34.5417 104.966 35.2031V41H104.028V32.5469H104.927ZM122.176 41.1562C121.457 41.1562 120.806 40.9792 120.223 40.625C119.645 40.2708 119.194 39.7786 118.871 39.1484C118.549 38.513 118.387 37.8021 118.387 37.0156V36.6797C118.387 35.8672 118.543 35.1354 118.856 34.4844C119.174 33.8333 119.614 33.3229 120.176 32.9531C120.739 32.5781 121.348 32.3906 122.004 32.3906C123.03 32.3906 123.843 32.7422 124.442 33.4453C125.046 34.1432 125.348 35.099 125.348 36.3125V36.8359H119.317V37.0156C119.317 37.974 119.59 38.7734 120.137 39.4141C120.689 40.0495 121.382 40.3672 122.215 40.3672C122.715 40.3672 123.155 40.276 123.536 40.0938C123.921 39.9115 124.27 39.6198 124.582 39.2188L125.168 39.6641C124.481 40.6589 123.483 41.1562 122.176 41.1562ZM122.004 33.1875C121.301 33.1875 120.707 33.4453 120.223 33.9609C119.744 34.4766 119.452 35.1693 119.348 36.0391H124.418V35.9375C124.392 35.125 124.161 34.4635 123.723 33.9531C123.286 33.4427 122.713 33.1875 122.004 33.1875Z" fill="#1F3F68"/>
</svg>
